<svg width="76" height="76" viewBox="0 0 76 76" fill="none" xmlns="http://www.w3.org/2000/svg">
<path d="M0.732 73V64.15H4.32C5.248 64.15 5.94 64.362 6.396 64.786C6.856 65.206 7.086 65.812 7.086 66.604C7.086 67.06 6.998 67.45 6.822 67.774C6.65 68.094 6.436 68.342 6.18 68.518C5.928 68.694 5.684 68.792 5.448 68.812C5.692 68.828 5.922 68.89 6.138 68.998C6.358 69.102 6.538 69.268 6.678 69.496C6.818 69.724 6.888 70.03 6.888 70.414C6.888 70.698 6.888 70.978 6.888 71.254C6.888 71.53 6.888 71.812 6.888 72.1C6.888 72.296 6.902 72.478 6.93 72.646C6.962 72.81 7.008 72.928 7.068 73H5.202C5.15 72.92 5.108 72.8 5.076 72.64C5.044 72.476 5.028 72.296 5.028 72.1C5.028 71.844 5.028 71.6 5.028 71.368C5.028 71.132 5.028 70.886 5.028 70.63C5.028 70.282 4.938 70.014 4.758 69.826C4.578 69.634 4.29 69.538 3.894 69.538H2.058L2.556 68.944V73H0.732ZM2.556 68.776L2.058 68.098H3.918C4.158 68.098 4.372 68.044 4.56 67.936C4.748 67.828 4.896 67.674 5.004 67.474C5.116 67.274 5.172 67.04 5.172 66.772C5.172 66.396 5.058 66.104 4.83 65.896C4.606 65.688 4.29 65.584 3.882 65.584H2.016L2.556 64.978V68.776ZM8.98688 70.372V69.142H13.2109L13.0309 69.454C13.0309 69.422 13.0309 69.392 13.0309 69.364C13.0309 69.332 13.0309 69.302 13.0309 69.274C13.0309 69.046 12.9769 68.828 12.8689 68.62C12.7609 68.408 12.5929 68.236 12.3649 68.104C12.1409 67.968 11.8529 67.9 11.5009 67.9C11.1489 67.9 10.8449 67.976 10.5889 68.128C10.3369 68.276 10.1429 68.49 10.0069 68.77C9.87488 69.05 9.80888 69.388 9.80888 69.784C9.80888 70.192 9.87288 70.542 10.0009 70.834C10.1329 71.122 10.3269 71.344 10.5829 71.5C10.8429 71.656 11.1649 71.734 11.5489 71.734C11.7969 71.734 12.0109 71.712 12.1909 71.668C12.3709 71.62 12.5169 71.56 12.6289 71.488C12.7449 71.416 12.8329 71.336 12.8929 71.248C12.9529 71.16 12.9889 71.074 13.0009 70.99H14.8369C14.8129 71.258 14.7209 71.522 14.5609 71.782C14.4009 72.038 14.1789 72.27 13.8949 72.478C13.6109 72.682 13.2649 72.844 12.8569 72.964C12.4529 73.084 11.9909 73.144 11.4709 73.144C10.7669 73.144 10.1529 73.004 9.62888 72.724C9.10488 72.44 8.69888 72.05 8.41088 71.554C8.12288 71.054 7.97888 70.478 7.97888 69.826C7.97888 69.166 8.12488 68.588 8.41688 68.092C8.71288 67.592 9.12288 67.204 9.64688 66.928C10.1749 66.648 10.7849 66.508 11.4769 66.508C12.1849 66.508 12.7969 66.65 13.3129 66.934C13.8289 67.214 14.2269 67.608 14.5069 68.116C14.7869 68.62 14.9269 69.208 14.9269 69.88C14.9269 69.98 14.9249 70.076 14.9209 70.168C14.9169 70.26 14.9109 70.328 14.9029 70.372H8.98688ZM19.2993 73.144C18.5993 73.144 17.9853 73.004 17.4573 72.724C16.9293 72.44 16.5193 72.046 16.2273 71.542C15.9393 71.038 15.7953 70.456 15.7953 69.796C15.7953 69.128 15.9393 68.55 16.2273 68.062C16.5193 67.57 16.9293 67.188 17.4573 66.916C17.9853 66.644 18.5993 66.508 19.2993 66.508C19.8233 66.508 20.2873 66.586 20.6913 66.742C21.0953 66.894 21.4333 67.096 21.7053 67.348C21.9773 67.6 22.1833 67.876 22.3233 68.176C22.4633 68.476 22.5333 68.774 22.5333 69.07C22.5333 69.074 22.5333 69.082 22.5333 69.094C22.5333 69.102 22.5333 69.11 22.5333 69.118H20.6913C20.6913 69.094 20.6893 69.072 20.6853 69.052C20.6853 69.028 20.6813 69.004 20.6733 68.98C20.6413 68.812 20.5713 68.654 20.4633 68.506C20.3553 68.358 20.2033 68.238 20.0073 68.146C19.8153 68.05 19.5753 68.002 19.2873 68.002C18.9793 68.002 18.7033 68.07 18.4593 68.206C18.2193 68.342 18.0293 68.544 17.8893 68.812C17.7493 69.076 17.6793 69.404 17.6793 69.796C17.6793 70.18 17.7493 70.512 17.8893 70.792C18.0293 71.068 18.2193 71.28 18.4593 71.428C18.7033 71.576 18.9793 71.65 19.2873 71.65C19.6033 71.65 19.8613 71.602 20.0613 71.506C20.2613 71.406 20.4113 71.274 20.5113 71.11C20.6113 70.942 20.6713 70.758 20.6913 70.558H22.5333C22.5333 70.854 22.4633 71.156 22.3233 71.464C22.1873 71.768 21.9833 72.046 21.7113 72.298C21.4433 72.55 21.1073 72.754 20.7033 72.91C20.2993 73.066 19.8313 73.144 19.2993 73.144ZM23.6228 73V66.628H25.4648V73H23.6228ZM24.5408 65.59C24.2528 65.59 24.0008 65.514 23.7848 65.362C23.5728 65.21 23.4668 64.996 23.4668 64.72C23.4668 64.44 23.5728 64.224 23.7848 64.072C24.0008 63.92 24.2528 63.844 24.5408 63.844C24.8328 63.844 25.0848 63.92 25.2968 64.072C25.5128 64.224 25.6208 64.44 25.6208 64.72C25.6208 65 25.5128 65.216 25.2968 65.368C25.0848 65.516 24.8328 65.59 24.5408 65.59ZM26.8354 75.622V66.628H28.7014V75.622H26.8354ZM30.6694 73.144C30.1654 73.144 29.7034 73.01 29.2834 72.742C28.8634 72.47 28.5274 72.106 28.2754 71.65C28.0234 71.19 27.8974 70.674 27.8974 70.102C27.8974 70.086 27.8974 70.072 27.8974 70.06C27.8974 70.044 27.8974 70.026 27.8974 70.006L28.7014 69.988C28.7014 70 28.7014 70.012 28.7014 70.024C28.7014 70.036 28.7014 70.048 28.7014 70.06C28.7014 70.356 28.7734 70.616 28.9174 70.84C29.0614 71.06 29.2474 71.23 29.4754 71.35C29.7034 71.47 29.9414 71.53 30.1894 71.53C30.5974 71.53 30.9514 71.39 31.2514 71.11C31.5554 70.826 31.7074 70.384 31.7074 69.784C31.7074 69.184 31.5574 68.748 31.2574 68.476C30.9574 68.2 30.6014 68.062 30.1894 68.062C29.9414 68.062 29.7034 68.122 29.4754 68.242C29.2474 68.358 29.0614 68.524 28.9174 68.74C28.7734 68.956 28.7014 69.214 28.7014 69.514L27.8974 69.466C27.8974 68.89 28.0234 68.382 28.2754 67.942C28.5274 67.498 28.8634 67.148 29.2834 66.892C29.7034 66.636 30.1654 66.508 30.6694 66.508C31.1854 66.508 31.6674 66.636 32.1154 66.892C32.5634 67.144 32.9254 67.514 33.2014 68.002C33.4814 68.49 33.6214 69.084 33.6214 69.784C33.6214 70.516 33.4854 71.132 33.2134 71.632C32.9414 72.132 32.5814 72.51 32.1334 72.766C31.6854 73.018 31.1974 73.144 30.6694 73.144ZM35.4947 70.372V69.142H39.7187L39.5387 69.454C39.5387 69.422 39.5387 69.392 39.5387 69.364C39.5387 69.332 39.5387 69.302 39.5387 69.274C39.5387 69.046 39.4847 68.828 39.3767 68.62C39.2687 68.408 39.1007 68.236 38.8727 68.104C38.6487 67.968 38.3607 67.9 38.0087 67.9C37.6567 67.9 37.3527 67.976 37.0967 68.128C36.8447 68.276 36.6507 68.49 36.5147 68.77C36.3827 69.05 36.3167 69.388 36.3167 69.784C36.3167 70.192 36.3807 70.542 36.5087 70.834C36.6407 71.122 36.8347 71.344 37.0907 71.5C37.3507 71.656 37.6727 71.734 38.0567 71.734C38.3047 71.734 38.5187 71.712 38.6987 71.668C38.8787 71.62 39.0247 71.56 39.1367 71.488C39.2527 71.416 39.3407 71.336 39.4007 71.248C39.4607 71.16 39.4967 71.074 39.5087 70.99H41.3447C41.3207 71.258 41.2287 71.522 41.0687 71.782C40.9087 72.038 40.6867 72.27 40.4027 72.478C40.1187 72.682 39.7727 72.844 39.3647 72.964C38.9607 73.084 38.4987 73.144 37.9787 73.144C37.2747 73.144 36.6607 73.004 36.1367 72.724C35.6127 72.44 35.2067 72.05 34.9187 71.554C34.6307 71.054 34.4867 70.478 34.4867 69.826C34.4867 69.166 34.6327 68.588 34.9247 68.092C35.2207 67.592 35.6307 67.204 36.1547 66.928C36.6827 66.648 37.2927 66.508 37.9847 66.508C38.6927 66.508 39.3047 66.65 39.8207 66.934C40.3367 67.214 40.7347 67.608 41.0147 68.116C41.2947 68.62 41.4347 69.208 41.4347 69.88C41.4347 69.98 41.4327 70.076 41.4287 70.168C41.4247 70.26 41.4187 70.328 41.4107 70.372H35.4947ZM45.2491 73.144C44.8691 73.144 44.5031 73.1 44.1511 73.012C43.7991 72.924 43.4831 72.794 43.2031 72.622C42.9271 72.45 42.7071 72.236 42.5431 71.98C42.3831 71.72 42.3031 71.418 42.3031 71.074C42.3031 71.058 42.3031 71.04 42.3031 71.02C42.3031 70.996 42.3031 70.978 42.3031 70.966H44.1511C44.1511 70.978 44.1511 70.992 44.1511 71.008C44.1511 71.02 44.1511 71.034 44.1511 71.05C44.1511 71.282 44.2531 71.452 44.4571 71.56C44.6651 71.668 44.9451 71.722 45.2971 71.722C45.4811 71.722 45.6571 71.704 45.8251 71.668C45.9971 71.628 46.1371 71.566 46.2451 71.482C46.3571 71.394 46.4131 71.284 46.4131 71.152C46.4131 70.94 46.2951 70.79 46.0591 70.702C45.8271 70.614 45.4531 70.526 44.9371 70.438C44.6451 70.39 44.3491 70.322 44.0491 70.234C43.7491 70.146 43.4731 70.03 43.2211 69.886C42.9691 69.738 42.7671 69.552 42.6151 69.328C42.4631 69.1 42.3871 68.824 42.3871 68.5C42.3871 68.068 42.5171 67.704 42.7771 67.408C43.0411 67.112 43.3911 66.888 43.8271 66.736C44.2631 66.584 44.7431 66.508 45.2671 66.508C45.7671 66.508 46.2331 66.592 46.6651 66.76C47.0971 66.924 47.4471 67.162 47.7151 67.474C47.9831 67.782 48.1171 68.154 48.1171 68.59C48.1171 68.598 48.1171 68.61 48.1171 68.626C48.1171 68.642 48.1171 68.658 48.1171 68.674H46.2871C46.2871 68.658 46.2871 68.644 46.2871 68.632C46.2871 68.62 46.2871 68.61 46.2871 68.602C46.2871 68.442 46.2351 68.312 46.1311 68.212C46.0311 68.112 45.9031 68.038 45.7471 67.99C45.5911 67.938 45.4291 67.912 45.2611 67.912C45.1091 67.912 44.9511 67.93 44.7871 67.966C44.6271 67.998 44.4911 68.054 44.3791 68.134C44.2671 68.21 44.2111 68.318 44.2111 68.458C44.2111 68.594 44.2711 68.706 44.3911 68.794C44.5111 68.878 44.6791 68.948 44.8951 69.004C45.1111 69.056 45.3611 69.106 45.6451 69.154C45.9131 69.198 46.1951 69.26 46.4911 69.34C46.7911 69.416 47.0711 69.526 47.3311 69.67C47.5951 69.81 47.8071 69.996 47.9671 70.228C48.1311 70.456 48.2131 70.746 48.2131 71.098C48.2131 71.462 48.1291 71.774 47.9611 72.034C47.7931 72.294 47.5651 72.506 47.2771 72.67C46.9931 72.83 46.6751 72.948 46.3231 73.024C45.9751 73.104 45.6171 73.144 45.2491 73.144ZM51.9745 73L54.1825 64.138H57.1285L59.3245 73H57.4165L55.6525 65.272H55.6645L53.8825 73H51.9745ZM53.5585 70.948V69.496H57.7585V70.948H53.5585ZM60.3862 75.622V66.628H62.2522V75.622H60.3862ZM64.2202 73.144C63.7162 73.144 63.2542 73.01 62.8342 72.742C62.4142 72.47 62.0782 72.106 61.8262 71.65C61.5742 71.19 61.4482 70.674 61.4482 70.102C61.4482 70.086 61.4482 70.072 61.4482 70.06C61.4482 70.044 61.4482 70.026 61.4482 70.006L62.2522 69.988C62.2522 70 62.2522 70.012 62.2522 70.024C62.2522 70.036 62.2522 70.048 62.2522 70.06C62.2522 70.356 62.3242 70.616 62.4682 70.84C62.6122 71.06 62.7982 71.23 63.0262 71.35C63.2542 71.47 63.4922 71.53 63.7402 71.53C64.1482 71.53 64.5022 71.39 64.8022 71.11C65.1062 70.826 65.2582 70.384 65.2582 69.784C65.2582 69.184 65.1082 68.748 64.8082 68.476C64.5082 68.2 64.1522 68.062 63.7402 68.062C63.4922 68.062 63.2542 68.122 63.0262 68.242C62.7982 68.358 62.6122 68.524 62.4682 68.74C62.3242 68.956 62.2522 69.214 62.2522 69.514L61.4482 69.466C61.4482 68.89 61.5742 68.382 61.8262 67.942C62.0782 67.498 62.4142 67.148 62.8342 66.892C63.2542 66.636 63.7162 66.508 64.2202 66.508C64.7362 66.508 65.2182 66.636 65.6662 66.892C66.1142 67.144 66.4762 67.514 66.7522 68.002C67.0322 68.49 67.1722 69.084 67.1722 69.784C67.1722 70.516 67.0362 71.132 66.7642 71.632C66.4922 72.132 66.1322 72.51 65.6842 72.766C65.2362 73.018 64.7482 73.144 64.2202 73.144ZM68.3315 75.622V66.628H70.1975V75.622H68.3315ZM72.1655 73.144C71.6615 73.144 71.1995 73.01 70.7795 72.742C70.3595 72.47 70.0235 72.106 69.7715 71.65C69.5195 71.19 69.3935 70.674 69.3935 70.102C69.3935 70.086 69.3935 70.072 69.3935 70.06C69.3935 70.044 69.3935 70.026 69.3935 70.006L70.1975 69.988C70.1975 70 70.1975 70.012 70.1975 70.024C70.1975 70.036 70.1975 70.048 70.1975 70.06C70.1975 70.356 70.2695 70.616 70.4135 70.84C70.5575 71.06 70.7435 71.23 70.9715 71.35C71.1995 71.47 71.4375 71.53 71.6855 71.53C72.0935 71.53 72.4475 71.39 72.7475 71.11C73.0515 70.826 73.2035 70.384 73.2035 69.784C73.2035 69.184 73.0535 68.748 72.7535 68.476C72.4535 68.2 72.0975 68.062 71.6855 68.062C71.4375 68.062 71.1995 68.122 70.9715 68.242C70.7435 68.358 70.5575 68.524 70.4135 68.74C70.2695 68.956 70.1975 69.214 70.1975 69.514L69.3935 69.466C69.3935 68.89 69.5195 68.382 69.7715 67.942C70.0235 67.498 70.3595 67.148 70.7795 66.892C71.1995 66.636 71.6615 66.508 72.1655 66.508C72.6815 66.508 73.1635 66.636 73.6115 66.892C74.0595 67.144 74.4215 67.514 74.6975 68.002C74.9775 68.49 75.1175 69.084 75.1175 69.784C75.1175 70.516 74.9815 71.132 74.7095 71.632C74.4375 72.132 74.0775 72.51 73.6295 72.766C73.1815 73.018 72.6935 73.144 72.1655 73.144Z" fill="black"/>
<rect x="12" width="52" height="52" rx="5" fill="#FCDC36"/>
<path fill-rule="evenodd" clip-rule="evenodd" d="M37.6978 22.3109V19.6482V22.3109Z" fill="#8958A3"/>
<path d="M37.6978 22.3109V19.6482" stroke="#8958A3" stroke-width="1.33139" stroke-linecap="square"/>
<path fill-rule="evenodd" clip-rule="evenodd" d="M57.0029 40.9504C57.0029 30.2885 48.3597 21.6453 37.6978 21.6453C27.0359 21.6453 18.3927 30.2885 18.3927 40.9504H57.0029Z" fill="#41197F"/>
<path d="M37.6978 24.9737C31.4323 24.9737 26.0091 28.5804 23.3912 33.8309" stroke="white" stroke-width="1.33139" stroke-linecap="round"/>
<path d="M57.3358 40.9504H18.0599C17.1407 40.9504 16.3956 41.6955 16.3956 42.6146C16.3956 43.5337 17.1407 44.2788 18.0599 44.2788H57.3358C58.2549 44.2788 59 43.5337 59 42.6146C59 41.6955 58.2549 40.9504 57.3358 40.9504Z" fill="#8958A3"/>
<path fill-rule="evenodd" clip-rule="evenodd" d="M35.0351 18.3168H40.3606V20.3139H35.0351V18.3168Z" fill="#41197F"/>
<path fill-rule="evenodd" clip-rule="evenodd" d="M46.7162 5C44.1115 5 42 6.57238 42 9.76379C42 12.9552 49.1205 20.1321 50.3226 20.1321C51.5248 20.1321 58.6453 12.9552 58.6453 9.76379C58.6453 6.57238 56.5338 5 53.9291 5C52.4823 5 51.1877 5.65802 50.3226 6.69394C49.4575 5.65802 48.1629 5 46.7162 5Z" fill="#E44343"/>
<path d="M47.1145 7.27313C45.4097 7.27313 43.7048 8.97798 44.8414 11.2511" stroke="white" stroke-width="1.51321" stroke-linecap="round"/>
</svg>
